#!OML:ASF F:\VICON\USERDATA\INSTALL\rory3\rory3.ASF
:FULLY-SPECIFIED
:DEGREES
2159
root -1.02106 18.3391 2.02166 -10.6785 -28.4739 1.00629
lowerback -1.25925 1.36589 -0.754012
upperback -0.0816613 1.8375 -1.24551
thorax 0.639034 0.916964 -0.819222
lowerneck -2.71096 -1.08578 -6.61273
upperneck 10.1289 -1.63695 5.75555
head 3.55413 -0.817707 2.77085
rclavicle -3.97569e-015 -3.57812e-015
rhumerus 8.36576 17.0591 -39.497
rradius 58.1503
rwrist 8.53181
rhand -8.75643 7.87225
rfingers 7.12502
rthumb 17.1809 -21.3882
lclavicle -3.97569e-015 -3.57812e-015
lhumerus -3.01097 -3.90902 34.9192
lradius 99.7605
lwrist 17.8916
lhand -26.1473 22.9914
lfingers 7.12502
lthumb 0.403508 52.9707
rfemur 2.87935 13.8506 24.0645
rtibia 31.8323
rfoot -23.6825 -12.6255
rtoes 4.06277
lfemur -7.98422 2.5421 -10.2657
ltibia 37.7458
lfoot -17.6065 10.1545
ltoes -7.29675
2160
root -1.01581 18.3314 2.00402 -10.9428 -28.0922 1.07109
lowerback -1.37824 1.33691 -0.843659
upperback -0.213592 1.79964 -1.22451
thorax 0.566867 0.897773 -0.747266
lowerneck -2.7123 -0.944667 -6.59431
upperneck 9.60516 -1.39914 5.49196
head 3.75613 -0.727371 2.98235
rclavicle 2.8128e-014 -1.55052e-014
rhumerus 8.79657 15.0903 -38.3985
rradius 58.7884
rwrist 8.30104
rhand -9.45605 7.8574
rfingers 7.12502
rthumb 16.5074 -21.4604
lclavicle 2.8128e-014 -1.55052e-014
lhumerus -2.72996 -2.18827 34.0402
lradius 99.49
lwrist 18.5422
lhand -26.2173 23.4156
lfingers 7.12502
lthumb 0.335901 53.3951
rfemur 3.0347 13.7388 24.0854
rtibia 31.9897
rfoot -23.547 -13.0442
rtoes 3.49041
lfemur -7.72927 3.29043 -10.1627
ltibia 39.3747
lfoot -17.5666 10.5555
ltoes -7.25332
2161
root -1.00776 18.3243 1.98881 -11.2209 -27.7273 1.16151
lowerback -1.53885 1.30246 -0.90718
upperback -0.301648 1.75575 -1.21731
thorax 0.564249 0.875619 -0.702477
lowerneck -2.75128 -0.806622 -6.52464
upperneck 9.37061 -1.1917 5.33832
head 3.66205 -0.624861 2.91974
rclavicle 4.02539e-014 1.27222e-014
rhumerus 9.33957 12.9916 -37.4881
rradius 59.4003
rwrist 7.87949
rhand -10.3661 7.0425
rfingers 7.12502
rthumb 15.631 -22.346
lclavicle 4.02539e-014 1.27222e-014
lhumerus -2.52735 -0.375941 33.185
lradius 99.2637
lwrist 19.2455
lhand -26.5396 23.5516
lfingers 7.12502
lthumb 0.0246225 53.5313
rfemur 3.20001 13.6008 24.0599
rtibia 32.1371
rfoot -23.2647 -13.43
rtoes 2.12579
lfemur -7.46196 3.91719 -10.0574
ltibia 41.0022
lfoot -17.6606 10.613
ltoes -6.66292
2162
root -0.997888 18.3176 1.97231 -11.4099 -27.4726 1.1458
lowerback -1.70366 1.32517 -0.840396
upperback -0.383459 1.78619 -1.21356
thorax 0.57491 0.890859 -0.732415
lowerneck -2.85322 -0.708279 -6.298
upperneck 9.18967 -1.03454 5.05424
head 3.59852 -0.546254 2.78141
rclavicle 6.65929e-015 1.39149e-014
rhumerus 9.83931 10.6552 -36.8064
rradius 59.9502
rwrist 7.31309
rhand -11.7801 6.14272
rfingers 7.12502
rthumb 14.2689 -23.3471
lclavicle 6.65929e-015 1.39149e-014
lhumerus -2.20837 1.45086 32.3841
lradius 99.054
lwrist 20.0499
lhand -26.969 23.9909
lfingers 7.12502
lthumb -0.390196 53.9703
rfemur 3.31376 13.5331 24.1375
rtibia 32.2612
rfoot -23.029 -13.7374
rtoes 1.42352
lfemur -7.21585 4.6147 -9.77907
ltibia 42.575
lfoot -17.595 10.3661
ltoes -6.15003
2163
root -0.986082 18.3123 1.95266 -11.5549 -27.2533 1.12004
lowerback -1.79503 1.34852 -0.802689
upperback -0.543146 1.81514 -1.18105
thorax 0.462927 0.905434 -0.719741
lowerneck -2.87481 -0.564767 -6.1317
upperneck 9.09377 -0.825128 4.81428
head 3.54869 -0.444082 2.67329
rclavicle 1.18177e-013 9.93923e-015
rhumerus 10.1918 8.52626 -35.9706
rradius 60.6658
rwrist 6.77883
rhand -12.5645 5.89672
rfingers 7.12502
rthumb 13.513 -23.6449
lclavicle 1.18177e-013 9.93923e-015
lhumerus -2.00337 3.25034 31.6859
lradius 98.8382
lwrist 20.7386
lhand -27.2032 24.5022
lfingers 7.12502
lthumb -0.616371 54.4811
rfemur 3.38096 13.5673 24.2341
rtibia 32.3626
rfoot -22.9396 -14.0065
rtoes 1.33874
lfemur -6.9658 5.23216 -9.4769
ltibia 44.0643
lfoot -17.3229 10.0192
ltoes -6.29168
2164
root -0.973126 18.3085 1.93461 -11.7276 -26.9917 1.03546
lowerback -1.90855 1.36974 -0.658705
upperback -0.608167 1.84148 -1.1941
thorax 0.46508 0.918549 -0.811069
lowerneck -2.94911 -0.45778 -5.94793
upperneck 8.89785 -0.668242 4.65857
head 3.47962 -0.36277 2.58841
rclavicle -5.86415e-015 -7.55382e-015
rhumerus 10.5748 5.91927 -35.382
rradius 61.3411
rwrist 7.03712
rhand -12.578 6.30552
rfingers 7.12502
rthumb 13.5 -23.2369
lclavicle -5.86415e-015 -7.55382e-015
lhumerus -1.653 5.12957 30.9908
lradius 98.4911
lwrist 21.1369
lhand -27.3979 24.6715
lfingers 7.12502
lthumb -0.804345 54.6497
rfemur 3.55079 13.664 24.4275
rtibia 32.4283
rfoot -22.7724 -14.4355
rtoes 0.67966
lfemur -6.65111 5.57997 -9.11203
ltibia 45.4602
lfoot -16.998 9.4828
ltoes -5.95877
